PathFileType	4	(X/Y/Z)	C:/Users/opensim2020/Desktop/walking_exp_matlab/subject01_walking11_straight_03.trc																																																																																																																																		
DataRate	CameraRate	NumFrames	NumMarkers	Units	OrigDataRate	OrigDataStartFrame	OrigNumFrames																																																																																																																														
100	100	7	44	mm	100	2912	338																																																																																																																														
Frame#	Time	LFHD			RFHD			LBHD			RBHD			C7			T10			CLAV			STRN			RBAK			LSHO			LUPA			LELB			LFRM			LWRA			LWRB			LFIN			RSHO			RUPA			RELB			RFRM			RWRA			RWRB			RFIN			LASI			RASI			LPSI			RPSI			LTHI			LKNE			LTIB			LANK			LHEE			LTOE			RTHI			RKNE			RTIB			RANK			RHEE			RTOE			*39			*40			*41			*42			*43		
		X1	Y1	Z1	X2	Y2	Z2	X3	Y3	Z3	X4	Y4	Z4	X5	Y5	Z5	X6	Y6	Z6	X7	Y7	Z7	X8	Y8	Z8	X9	Y9	Z9	X10	Y10	Z10	X11	Y11	Z11	X12	Y12	Z12	X13	Y13	Z13	X14	Y14	Z14	X15	Y15	Z15	X16	Y16	Z16	X17	Y17	Z17	X18	Y18	Z18	X19	Y19	Z19	X20	Y20	Z20	X21	Y21	Z21	X22	Y22	Z22	X23	Y23	Z23	X24	Y24	Z24	X25	Y25	Z25	X26	Y26	Z26	X27	Y27	Z27	X28	Y28	Z28	X29	Y29	Z29	X30	Y30	Z30	X31	Y31	Z31	X32	Y32	Z32	X33	Y33	Z33	X34	Y34	Z34	X35	Y35	Z35	X36	Y36	Z36	X37	Y37	Z37	X38	Y38	Z38	X39	Y39	Z39	X40	Y40	Z40	X41	Y41	Z41	X42	Y42	Z42	X43	Y43	Z43	X44	Y44	Z44
																																																																																																																																					
85	0.84	-388.487	1669.01794	1444.35254	-357.89386	1681.18079	1553.34412	-483.94702	1593.23438	1471.49316	-453.88992	1604.16882	1587.47681	-474.48132	1423.62512	1499.49585	-514.1095	1133.14124	1505.5968	-329.75256	1357.13562	1496.39075	-290.92172	1198.10083	1489.651	-530.94391	1231.58533	1576.63403	-389.74136	1393.03491	1337.52869	-432.26987	1211.28223	1253.64722	-459.21603	1062.87109	1255.94385	-436.40884	953.33142	1225.26758	-369.26352	829.65057	1233.9436	-426.11765	831.69336	1214.02234	-385.09314	757.48053	1199.67932	-392.6095	1382.91931	1648.02417	-432.42691	1178.75061	1750.03235	-415.32288	1053.30444	1750.78345	-353.6694	946.27319	1772.70142	-242.84097	861.10535	1742.83081	-282.4837	846.57129	1783.48901	-224.01181	783.27502	1774.06409	-347.8132	924.30023	1398.53711	-353.25769	916.27039	1615.44202	-534.95093	940.95477	1444.11023	-536.17981	942.11176	1589.25488	-312.21878	609.89569	1321.22705	-283.5546	481.7309	1335.25928	-275.50217	296.23816	1313.3335	-222.66678	78.54687	1351.7345	-251.59293	32.41578	1405.89502	-75.2886	91.50634	1338.59436	-443.62509	588.27203	1659.62195	-455.828	428.7583	1632.62109	-545.40558	275.85391	1639.55847	-624.13489	85.17787	1591.23584	-683.68311	55.87078	1545.01379	-492.56879	32.27952	1581.85767	-382.74332	1709.27747	1534.38977	1973.03796	1023.61493	-3101.93481	2012.50232	1021.96216	-3140.75464	NaN	NaN	NaN	NaN	NaN	NaN
86	0.85	-382.9812	1668.4198	1441.57849	-352.60626	1680.64758	1550.62109	-478.48361	1592.59094	1468.56323	-448.6217	1603.60864	1584.60815	-468.93552	1422.91235	1496.74329	-508.04529	1132.36084	1503.30322	-324.14017	1356.62085	1493.97449	-285.05463	1197.64844	1487.61963	-525.36316	1231.00269	1574.11633	-383.84283	1392.21289	1334.97034	-425.85437	1210.20251	1251.18237	-452.67831	1061.83875	1253.71545	-429.7681	952.23602	1223.20691	-362.42361	828.71954	1232.18726	-419.19272	830.64343	1212.20886	-377.93326	756.54047	1198.02881	-387.28378	1382.61194	1645.44519	-426.97745	1178.5343	1747.66797	-409.55423	1053.1073	1748.64819	-347.92453	946.10858	1770.77893	-237.0627	860.92181	1741.24744	-276.72366	846.4472	1781.88452	-218.29512	783.13812	1772.63904	-340.961	923.64929	1397.1936	-347.2081	916.06628	1614.21118	-528.33435	940.13257	1442.052	-530.43597	941.84485	1587.17749	-304.7677	609.38184	1320.99536	-276.6203	481.11603	1334.74744	-270.65085	295.0499	1312.38403	-220.83925	76.92883	1350.7915	-250.78319	31.30832	1404.64624	-73.14955	88.01205	1338.83521	-438.30048	587.96515	1658.56482	-450.93875	428.33447	1632.06299	-542.24707	276.43912	1639.04626	-623.3324	86.42435	1591.35522	-683.48035	58.30835	1545.1228	-492.50748	32.24192	1581.88806	-377.44675	1708.7135	1531.62158	1973.05237	1023.38727	-3101.92676	2012.52527	1021.94824	-3140.74316	NaN	NaN	NaN	NaN	NaN	NaN
87	0.86	-377.42041	1667.8252	1438.67957	-347.31555	1680.12695	1547.8363	-473.09198	1592.0719	1465.47729	-443.37012	1603.09521	1581.66467	-463.43335	1422.1582	1493.85889	-501.91962	1131.58923	1500.92224	-318.52628	1356.12561	1491.49695	-279.04977	1197.22546	1485.48462	-519.62714	1230.34314	1571.49182	-377.97778	1391.4071	1332.29309	-419.72421	1209.21143	1248.75549	-446.27924	1060.73267	1251.38489	-422.92953	951.15521	1221.10742	-355.43744	827.7804	1230.63684	-412.06873	829.54346	1210.34143	-370.48557	755.62207	1196.40271	-381.94046	1382.27173	1642.78943	-421.53949	1178.35168	1745.22009	-403.85117	1052.90857	1746.42932	-342.28394	945.99615	1768.8927	-231.3895	860.72699	1739.72253	-271.14655	846.31281	1780.31628	-212.7207	782.95258	1771.26758	-333.92545	923.07788	1395.74048	-340.95068	915.8371	1612.90442	-521.53363	939.22015	1439.8739	-524.18262	941.51453	1585.03223	-297.41937	608.72308	1320.72546	-269.78345	480.43784	1334.49036	-266.03818	293.78888	1311.53052	-219.86049	74.51165	1350.10193	-250.47037	30.00902	1404.15857	-71.69885	83.81808	1339.32373	-432.69949	587.77863	1657.61267	-445.85596	427.91113	1631.43359	-539.0741	277.25818	1639.02649	-622.41498	88.08588	1591.59058	-682.53857	60.07373	1545.47827	-492.33298	32.24071	1581.98059	-372.00293	1708.19006	1528.81519	1973.06104	1023.93658	-3102.08154	2012.48352	1022.02429	-3140.65283	NaN	NaN	NaN	NaN	NaN	NaN
88	0.87	-371.78201	1667.26807	1435.81726	-342.01166	1679.58118	1544.91028	-467.64636	1591.49072	1462.40588	-438.14374	1602.57715	1578.59314	-457.94885	1421.37939	1490.88403	-495.7244	1130.73877	1498.46985	-312.93555	1355.65588	1488.88062	-272.99402	1196.8772	1483.21729	-513.84863	1229.64001	1568.82703	-372.12912	1390.63293	1329.54333	-413.20892	1208.18933	1246.05994	-439.64685	1059.59656	1248.92126	-416.00806	950.07104	1219.00867	-348.08124	826.86615	1228.71265	-404.8042	828.43127	1208.45728	-363.07071	754.75482	1194.49951	-376.59256	1381.94751	1640.04529	-416.12305	1178.16577	1742.69812	-398.28677	1052.78162	1744.19409	-336.81915	945.85028	1766.93335	-225.85258	860.46069	1738.17676	-265.767	846.12018	1778.66296	-207.25211	782.70642	1769.82764	-326.68359	922.53735	1394.16089	-334.51526	915.61676	1611.46838	-514.57031	938.31177	1437.62683	-517.3454	940.62061	1582.58826	-290.16357	607.94849	1320.56934	-263.14825	479.60043	1334.14856	-261.79544	292.31415	1310.9281	-218.9809	72.34531	1350.39038	-250.20688	29.24606	1404.33154	-70.32901	79.24767	1339.56653	-426.84442	587.49756	1656.64148	-440.55499	427.51395	1630.69043	-535.4696	277.84869	1638.36292	-621.33478	89.7107	1591.76892	-681.96649	62.40603	1545.72339	-492.1636	32.29268	1582.04443	-366.74289	1707.60718	1525.776	1973.15466	1023.45654	-3101.80322	2012.46472	1021.99701	-3140.69873	NaN	NaN	NaN	NaN	NaN	NaN
89	0.88	-366.18994	1666.79712	1432.71191	-336.70804	1679.18665	1541.97437	-461.97049	1590.91895	1459.21277	-432.8465	1602.14502	1575.44739	-452.5134	1420.63989	1487.78076	-489.34882	1129.84094	1495.90784	-307.27518	1355.30225	1486.17297	-265.8725	1196.72119	1480.91956	-508.04138	1228.93689	1565.96155	-366.2818	1389.83765	1326.56665	-406.66925	1207.05774	1243.33435	-432.59839	1058.30579	1246.45374	-408.79883	948.93372	1216.63696	-340.76303	825.9859	1227.10657	-397.3327	827.3421	1206.52515	-355.48718	753.64111	1192.90735	-371.28531	1381.67334	1637.19775	-410.69193	1178.11963	1740.14758	-392.76981	1052.63916	1741.8667	-331.39282	945.65576	1764.96851	-220.41785	860.1347	1736.60107	-260.45398	845.84174	1776.9364	-201.96053	782.46588	1768.48499	-319.40829	921.96521	1392.60767	-327.80923	915.37976	1609.97046	-507.62625	937.47162	1435.29028	-510.74377	939.99915	1580.30249	-283.01282	607.09949	1320.61658	-256.9603	478.4292	1333.38721	-257.76077	290.7041	1310.78516	-216.98682	71.73447	1351.40393	-248.72081	29.83841	1405.06799	-67.97158	74.5906	1339.17505	-420.79413	587.28595	1655.65442	-434.95926	427.16544	1629.87378	-531.79291	278.58801	1637.70898	-620.32007	91.57882	1592.10681	-681.33319	64.93148	1546.09827	-491.96198	32.30688	1582.06128	-361.40552	1707.14819	1522.7345	1973.0708	1023.61023	-3101.8252	2012.51099	1021.95813	-3140.67065	NaN	NaN	NaN	NaN	NaN	NaN
90	0.89	-360.70154	1666.65247	1429.6333	-331.41782	1678.99524	1538.92114	-456.44363	1590.69946	1455.86743	-427.64194	1601.90515	1572.18103	-447.05478	1420.21021	1484.56177	-482.92505	1129.10852	1493.36462	-301.60587	1355.07654	1483.33264	-259.67685	1196.70508	1478.56812	-502.15143	1228.39587	1562.84595	-360.41614	1389.22864	1323.50647	-400.2681	1206.22461	1240.52551	-425.72705	1057.22107	1243.823	-401.6485	947.86267	1214.3811	-333.3114	825.09528	1225.39612	-389.82541	826.27032	1204.56934	-347.51859	752.87128	1191.34448	-365.96426	1381.495	1634.28894	-405.30157	1178.03479	1737.44141	-387.26865	1052.51892	1739.47473	-326.0405	945.51575	1763.00476	-215.1869	859.80566	1735.03699	-255.24817	845.71527	1775.39063	-196.97443	782.17828	1767.12085	-312.20428	921.56903	1391.08862	-320.91574	915.22931	1608.30762	-500.59924	936.79285	1432.91772	-504.05984	939.45667	1578.07251	-276.12354	606.37085	1320.53564	-251.29082	477.21616	1332.40527	-253.74428	289.37457	1311.46643	-213.40947	71.85557	1351.422	-246.60826	31.25345	1405.17664	-64.71111	70.97221	1339.05823	-414.5079	586.89081	1654.37219	-429.17267	427.00696	1628.93262	-527.94647	279.51898	1637.05469	-619.1073	93.35774	1592.24402	-680.62262	68.2584	1546.53955	-491.7117	32.32626	1582.08728	-356.12698	1706.87915	1519.65723	1973.38354	1022.88074	-3102.10718	2012.53906	1022.09473	-3140.52783	NaN	NaN	NaN	NaN	NaN	NaN
91	0.9	-355.23148	1666.80322	1426.42407	-326.12741	1679.21643	1535.86743	-450.88641	1590.7356	1452.45728	-422.34479	1601.95471	1568.83398	-441.43091	1420.07654	1481.25696	-476.51602	1128.8031	1491.00964	-295.89627	1355.09119	1480.46362	-253.65498	1196.89502	1476.0791	-496.3273	1228.0575	1559.64807	-354.44925	1388.70142	1320.41785	-393.80667	1205.38013	1237.73474	-418.94693	1056.38977	1241.17957	-394.44717	946.8526	1212.23206	-325.69247	824.33148	1223.31738	-382.13062	825.28992	1202.6001	-339.66714	751.91266	1189.56372	-360.64566	1381.55762	1631.34485	-399.89093	1178.16565	1734.64929	-381.80908	1052.60388	1737.06567	-320.84668	945.48242	1760.9989	-210.0965	859.50812	1733.45422	-250.31125	845.57349	1773.76404	-192.12067	781.97174	1765.7688	-305.04391	921.34613	1389.46191	-313.87149	915.17352	1606.54736	-493.54135	936.44928	1430.61523	-497.20822	938.88184	1575.97302	-269.53287	606.18872	1319.75146	-246.0264	476.68585	1331.09497	-249.18092	288.97385	1311.83899	-209.78438	71.65739	1351.03479	-244.57306	32.16197	1404.6958	-61.62527	67.9658	1339.48975	-407.90088	586.80432	1653.00122	-423.04541	426.86761	1627.81067	-523.89569	280.67847	1636.26819	-617.5072	95.97641	1592.4657	-679.42993	71.30991	1546.76892	-491.42175	32.37184	1582.14038	-350.84885	1706.96277	1516.52148	1973.13708	1023.47089	-3101.88086	2012.51453	1022.06976	-3140.63989	NaN	NaN	NaN	NaN	NaN	NaN
